<svg width="45" height="45" viewBox="0 0 45 45" fill="none" xmlns="http://www.w3.org/2000/svg">
<path d="M36.5625 5.625H8.4375C7.69158 5.625 6.97621 5.92132 6.44876 6.44876C5.92132 6.97621 5.625 7.69158 5.625 8.4375V36.5625C5.625 37.3084 5.92132 38.0238 6.44876 38.5512C6.97621 39.0787 7.69158 39.375 8.4375 39.375H36.5625C37.3084 39.375 38.0238 39.0787 38.5512 38.5512C39.0787 38.0238 39.375 37.3084 39.375 36.5625V8.4375C39.375 7.69158 39.0787 6.97621 38.5512 6.44876C38.0238 5.92132 37.3084 5.625 36.5625 5.625V5.625ZM8.4375 36.5625V8.4375H36.5625V36.5625H8.4375Z" fill="#4F9AFF"/>
<path d="M19.6875 30.2344L12.6562 23.2594L14.8922 21.0938L19.6875 25.8047L30.1078 15.4688L32.3438 17.6906L19.6875 30.2344Z" fill="#4F9AFF"/>
</svg>
