<svg width="45" height="45" viewBox="0 0 45 45" fill="none" xmlns="http://www.w3.org/2000/svg">
<path d="M36.5625 8.4375V2.8125H2.8125V16.875H15.4688V42.1875H42.1875V8.4375H36.5625ZM5.625 14.0625V5.625H33.75V8.4375H15.4688V14.0625H5.625ZM39.375 39.375H18.2812V11.25H39.375V39.375Z" fill="#4F9AFF"/>
<path d="M21.0938 15.4688H23.9062V18.2812H21.0938V15.4688ZM26.7188 15.4688H36.5625V18.2812H26.7188V15.4688ZM21.0938 23.9062H23.9062V26.7188H21.0938V23.9062ZM26.7188 23.9062H36.5625V26.7188H26.7188V23.9062ZM21.0938 32.3438H23.9062V35.1562H21.0938V32.3438ZM26.7188 32.3438H36.5625V35.1562H26.7188V32.3438Z" fill="#4F9AFF"/>
</svg>
