<svg width="33" height="34" viewBox="0 0 33 34" fill="none" xmlns="http://www.w3.org/2000/svg">
<path d="M27.5408 9.58242L20.6057 2.43711C20.4123 2.23789 20.1513 2.125 19.8773 2.125H6.1875C5.61709 2.125 5.15625 2.5998 5.15625 3.1875V30.8125C5.15625 31.4002 5.61709 31.875 6.1875 31.875H26.8125C27.3829 31.875 27.8438 31.4002 27.8438 30.8125V10.3361C27.8438 10.0539 27.7342 9.78164 27.5408 9.58242ZM25.4654 10.8242H19.4004V4.57539L25.4654 10.8242ZM25.5234 29.4844H7.47656V4.51562H17.209V11.6875C17.209 12.0574 17.3516 12.4121 17.6054 12.6736C17.8593 12.9351 18.2035 13.082 18.5625 13.082H25.5234V29.4844ZM16.2422 20.5195H10.3125C10.1707 20.5195 10.0547 20.6391 10.0547 20.7852V22.3789C10.0547 22.525 10.1707 22.6445 10.3125 22.6445H16.2422C16.384 22.6445 16.5 22.525 16.5 22.3789V20.7852C16.5 20.6391 16.384 20.5195 16.2422 20.5195ZM10.0547 16.2695V17.8633C10.0547 18.0094 10.1707 18.1289 10.3125 18.1289H22.6875C22.8293 18.1289 22.9453 18.0094 22.9453 17.8633V16.2695C22.9453 16.1234 22.8293 16.0039 22.6875 16.0039H10.3125C10.1707 16.0039 10.0547 16.1234 10.0547 16.2695Z" fill="#4F9AFF"/>
</svg>
