<svg width="46" height="46" viewBox="0 0 46 46" fill="none" xmlns="http://www.w3.org/2000/svg">
<path d="M30.1875 12.9375H11.5C10.7377 12.9383 10.0069 13.2414 9.46791 13.7804C8.92891 14.3194 8.62576 15.0502 8.625 15.8125V30.1875C8.62576 30.9498 8.92891 31.6806 9.46791 32.2196C10.0069 32.7586 10.7377 33.0617 11.5 33.0625H30.1875C30.9498 33.0617 31.6806 32.7586 32.2196 32.2196C32.7586 31.6806 33.0617 30.9498 33.0625 30.1875V15.8125C33.0617 15.0502 32.7586 14.3194 32.2196 13.7804C31.6806 13.2414 30.9498 12.9383 30.1875 12.9375ZM30.1875 18.6875H25.875V15.8125H30.1875V18.6875ZM25.875 21.5625H30.1875V24.4375H25.875V21.5625ZM23 15.8125V30.1875H18.6875V20.125C18.6875 19.7438 18.536 19.3781 18.2665 19.1085C17.9969 18.839 17.6312 18.6875 17.25 18.6875H11.5V15.8125H23ZM15.8125 24.4375H11.5V21.5625H15.8125V24.4375ZM11.5 27.3125H15.8125V30.1875H11.5V27.3125ZM25.875 30.1875V27.3125H30.1875V30.1875H25.875Z" fill="white"/>
<path d="M33.8272 38.8125H5.75C4.98774 38.8117 4.25691 38.5086 3.71791 37.9696C3.17891 37.4306 2.87576 36.6998 2.875 35.9375V10.0625C2.87576 9.30024 3.17891 8.56941 3.71791 8.03041C4.25691 7.49141 4.98774 7.18826 5.75 7.1875H40.25C41.0123 7.18826 41.7431 7.49141 42.2821 8.03041C42.8211 8.56941 43.1242 9.30024 43.125 10.0625V28.2296C43.1242 28.902 42.8883 29.5529 42.458 30.0696L36.0353 37.7775C35.7659 38.1017 35.4285 38.3626 35.0468 38.5415C34.6652 38.7204 34.2487 38.8129 33.8272 38.8125ZM5.75 10.0625V35.9375H33.8272L40.25 28.2296V10.0625H5.75Z" fill="white"/>
</svg>
