<svg width="102" height="74" viewBox="0 0 102 74" fill="none" xmlns="http://www.w3.org/2000/svg">
<rect width="102" height="74" rx="8" fill="url(#paint0_linear_1801_204)"/>
<path d="M31 27C31 25.6739 31.5268 24.4021 32.4645 23.4645C33.4021 22.5268 34.6739 22 36 22H66C67.3261 22 68.5979 22.5268 69.5355 23.4645C70.4732 24.4021 71 25.6739 71 27V39.5H31V27ZM59.75 29.5C59.4185 29.5 59.1005 29.6317 58.8661 29.8661C58.6317 30.1005 58.5 30.4185 58.5 30.75V33.25C58.5 33.5815 58.6317 33.8995 58.8661 34.1339C59.1005 34.3683 59.4185 34.5 59.75 34.5H64.75C65.0815 34.5 65.3995 34.3683 65.6339 34.1339C65.8683 33.8995 66 33.5815 66 33.25V30.75C66 30.4185 65.8683 30.1005 65.6339 29.8661C65.3995 29.6317 65.0815 29.5 64.75 29.5H59.75ZM31 44.5V47C31 48.3261 31.5268 49.5979 32.4645 50.5355C33.4021 51.4732 34.6739 52 36 52H66C67.3261 52 68.5979 51.4732 69.5355 50.5355C70.4732 49.5979 71 48.3261 71 47V44.5H31Z" fill="white"/>
<defs>
<linearGradient id="paint0_linear_1801_204" x1="51" y1="0" x2="51" y2="74" gradientUnits="userSpaceOnUse">
<stop stop-color="#4F9AFF"/>
<stop offset="1" stop-color="#5CB6F2"/>
</linearGradient>
</defs>
</svg>
