<svg width="46" height="28" viewBox="0 0 46 28" fill="none" xmlns="http://www.w3.org/2000/svg">
<path d="M23 5.568C21.8915 4.22429 20.501 3.14091 18.927 2.39469C17.353 1.64846 15.6342 1.25766 13.8923 1.25C7.19 1.25 1.75 6.95775 1.75 14C1.75 21.0422 7.19 26.75 13.8923 26.75C17.5218 26.75 20.7772 25.0798 23 22.432M44.25 14C44.25 21.0422 38.81 26.75 32.1077 26.75C25.4012 26.75 19.9655 21.0422 19.9655 14C19.9655 6.95775 25.4012 1.25 32.1077 1.25C38.81 1.25 44.25 6.95775 44.25 14Z" stroke="white" stroke-width="2" stroke-linecap="round" stroke-linejoin="round"/>
</svg>
