<svg width="102" height="74" viewBox="0 0 102 74" fill="none" xmlns="http://www.w3.org/2000/svg">
<rect width="102" height="74" rx="8" fill="#EFF6FF"/>
<path d="M41.25 17.5H53.37C57.55 17.5 60.81 18.38 62.61 20.44C64.25 22.31 64.74 24.38 64.26 27.44C64.9132 27.7656 65.5026 28.2059 66 28.74C67.53 30.5 67.83 33 67.25 36C65.85 43.18 61.07 45.67 54.96 45.67H54C53.6329 45.6744 53.2798 45.8115 53.0059 46.056C52.732 46.3004 52.5559 46.6358 52.51 47L52.44 47.41L51.25 54.9L51.19 55.22C51.1329 55.5769 50.9506 55.9017 50.6757 56.1363C50.4008 56.3709 50.0514 56.4998 49.69 56.5H43.38C43.178 56.5163 42.9748 56.4888 42.7844 56.4195C42.5939 56.3501 42.4207 56.2405 42.2764 56.0982C42.1322 55.9558 42.0203 55.784 41.9484 55.5945C41.8766 55.405 41.8464 55.2023 41.86 55C42.7 49.64 43.51 44.61 44.35 39.26C44.8413 39.1692 45.343 39.149 45.84 39.2H50.08C57.08 39.2 62.54 36.37 64.14 28.2L64.26 27.49C63.857 27.2447 63.4358 27.0308 63 26.85L62.64 26.74L61.88 26.55C61.62 26.49 61.36 26.44 61.08 26.4C60.0447 26.238 58.9979 26.1611 57.95 26.17H47.71C47.4812 26.1673 47.2551 26.2187 47.05 26.32C46.8292 26.4267 46.6375 26.5851 46.4913 26.7819C46.345 26.9787 46.2485 27.2079 46.21 27.45C44.9233 35.6634 43.6267 43.8667 42.32 52.06V52.17H35.52C35.37 52.1731 35.2213 52.1423 35.0848 52.0801C34.9483 52.0178 34.8276 51.9257 34.7315 51.8104C34.6355 51.6952 34.5666 51.5598 34.53 51.4143C34.4934 51.2689 34.49 51.117 34.52 50.97L39.52 18.97C39.5846 18.5585 39.7948 18.1838 40.1122 17.914C40.4297 17.6443 40.8334 17.4974 41.25 17.5Z" stroke="#4F9AFF" stroke-linecap="round" stroke-linejoin="round"/>
</svg>
