<svg width="27" height="30" viewBox="0 0 27 30" fill="none" xmlns="http://www.w3.org/2000/svg">
<path d="M26.207 18.793L23.5 16.086V12.5C23.4969 10.0218 22.575 7.63285 20.9126 5.79498C19.2502 3.95712 16.9654 2.80093 14.5 2.55V0.5H12.5V2.55C10.0346 2.80093 7.74976 3.95712 6.08737 5.79498C4.42498 7.63285 3.5031 10.0218 3.5 12.5V16.086L0.793 18.793C0.605451 18.9805 0.500057 19.2348 0.5 19.5V22.5C0.5 22.7652 0.605357 23.0196 0.792893 23.2071C0.98043 23.3946 1.23478 23.5 1.5 23.5H8.5V24.277C8.47825 25.5456 8.9254 26.7777 9.75578 27.737C10.5862 28.6964 11.7414 29.3156 13 29.476C13.6952 29.5449 14.3971 29.4676 15.0606 29.249C15.7241 29.0304 16.3345 28.6753 16.8525 28.2066C17.3706 27.7379 17.7848 27.166 18.0685 26.5277C18.3522 25.8893 18.4992 25.1986 18.5 24.5V23.5H25.5C25.7652 23.5 26.0196 23.3946 26.2071 23.2071C26.3946 23.0196 26.5 22.7652 26.5 22.5V19.5C26.4999 19.2348 26.3946 18.9805 26.207 18.793ZM16.5 24.5C16.5 25.2956 16.1839 26.0587 15.6213 26.6213C15.0587 27.1839 14.2956 27.5 13.5 27.5C12.7044 27.5 11.9413 27.1839 11.3787 26.6213C10.8161 26.0587 10.5 25.2956 10.5 24.5V23.5H16.5V24.5ZM24.5 21.5H2.5V19.914L5.207 17.207C5.39455 17.0195 5.49994 16.7652 5.5 16.5V12.5C5.5 10.3783 6.34285 8.34344 7.84315 6.84315C9.34344 5.34285 11.3783 4.5 13.5 4.5C15.6217 4.5 17.6566 5.34285 19.1569 6.84315C20.6571 8.34344 21.5 10.3783 21.5 12.5V16.5C21.5001 16.7652 21.6054 17.0195 21.793 17.207L24.5 19.914V21.5Z" fill="#4F9AFF"/>
</svg>
