<svg width="157" height="152" viewBox="0 0 157 152" fill="none" xmlns="http://www.w3.org/2000/svg">
<g filter="url(#filter0_d_787_197)">
<rect x="60" y="50" width="37" height="32" rx="8" fill="#4F9AFF" shape-rendering="crispEdges"/>
<path d="M80.9922 67.7891L83.2344 68.5C82.8906 69.75 82.3177 70.6797 81.5156 71.2891C80.7188 71.8932 79.7057 72.1953 78.4766 72.1953C76.9557 72.1953 75.7057 71.6771 74.7266 70.6406C73.7474 69.599 73.2578 68.1771 73.2578 66.375C73.2578 64.4688 73.75 62.9896 74.7344 61.9375C75.7188 60.8802 77.013 60.3516 78.6172 60.3516C80.0182 60.3516 81.1562 60.7656 82.0312 61.5938C82.5521 62.0833 82.9427 62.7865 83.2031 63.7031L80.9141 64.25C80.7786 63.6562 80.4948 63.1875 80.0625 62.8438C79.6354 62.5 79.1146 62.3281 78.5 62.3281C77.651 62.3281 76.9609 62.6328 76.4297 63.2422C75.9036 63.8516 75.6406 64.8385 75.6406 66.2031C75.6406 67.651 75.901 68.6823 76.4219 69.2969C76.9427 69.9115 77.6198 70.2188 78.4531 70.2188C79.0677 70.2188 79.5964 70.0234 80.0391 69.6328C80.4818 69.2422 80.7995 68.6276 80.9922 67.7891Z" fill="white"/>
</g>
<defs>
<filter id="filter0_d_787_197" x="0" y="0" width="157" height="152" filterUnits="userSpaceOnUse" color-interpolation-filters="sRGB">
<feFlood flood-opacity="0" result="BackgroundImageFix"/>
<feColorMatrix in="SourceAlpha" type="matrix" values="0 0 0 0 0 0 0 0 0 0 0 0 0 0 0 0 0 0 127 0" result="hardAlpha"/>
<feOffset dy="10"/>
<feGaussianBlur stdDeviation="30"/>
<feComposite in2="hardAlpha" operator="out"/>
<feColorMatrix type="matrix" values="0 0 0 0 0.886275 0 0 0 0 0.92549 0 0 0 0 0.976471 0 0 0 0.25 0"/>
<feBlend mode="normal" in2="BackgroundImageFix" result="effect1_dropShadow_787_197"/>
<feBlend mode="normal" in="SourceGraphic" in2="effect1_dropShadow_787_197" result="shape"/>
</filter>
</defs>
</svg>
