<svg width="66" height="81" viewBox="0 0 66 81" fill="none" xmlns="http://www.w3.org/2000/svg">
<g clip-path="url(#clip0_1112_725)">
<path d="M63.9 27.6129C63.4297 27.9774 55.127 32.6511 55.127 43.0434C55.127 55.0638 65.6919 59.3163 66.0081 59.4216C65.9595 59.6808 64.3297 65.2455 60.4378 70.9155C56.9676 75.9051 53.3432 80.8866 47.8297 80.8866C42.3162 80.8866 40.8973 77.6871 34.5324 77.6871C28.3297 77.6871 26.1243 80.9919 21.0811 80.9919C16.0378 80.9919 12.5189 76.3749 8.47297 70.7049C3.78649 64.0467 0 53.703 0 43.8858C0 28.1394 10.2486 19.7883 20.3351 19.7883C25.6946 19.7883 30.1622 23.3037 33.527 23.3037C36.7297 23.3037 41.7243 19.5777 47.8216 19.5777C50.1324 19.5777 58.4351 19.7883 63.9 27.6129ZM44.927 12.9114C47.4486 9.9225 49.2324 5.7753 49.2324 1.6281C49.2324 1.053 49.1838 0.4698 49.0784 0C44.9757 0.1539 40.0946 2.7297 37.1514 6.1398C34.8405 8.7642 32.6838 12.9114 32.6838 17.1153C32.6838 17.7471 32.7892 18.3789 32.8378 18.5814C33.0973 18.63 33.5189 18.6867 33.9405 18.6867C37.6216 18.6867 42.2513 16.2243 44.927 12.9114Z" fill="black"/>
</g>
<defs>
<clipPath id="clip0_1112_725">
<rect width="66" height="81" fill="white"/>
</clipPath>
</defs>
</svg>
