<svg width="88" height="80" viewBox="0 0 88 80" fill="none" xmlns="http://www.w3.org/2000/svg">
<path d="M44 40.0008V77.5008M44 40.0008L33.5834 48.3341M44 40.0008L54.4167 48.3341M14.975 27.9883C11.0343 28.9799 7.5912 31.3764 5.29276 34.7276C2.99433 38.0788 1.99872 42.1539 2.49299 46.1874C2.98726 50.2209 4.93739 53.935 7.97698 56.6321C11.0166 59.3291 14.9364 60.8234 19 60.8341H23.1667" stroke="#4F9AFF" stroke-width="4" stroke-linecap="round" stroke-linejoin="round"/>
<path d="M59.9581 19.7421C58.534 14.1028 55.0189 9.21604 50.1253 6.07236C45.2317 2.92868 39.3259 1.76333 33.605 2.81255C27.8841 3.86177 22.7762 7.04706 19.3167 11.7227C15.8572 16.3983 14.305 22.2145 14.9748 27.9921C14.9748 27.9921 15.6123 31.6671 16.9164 33.7505" stroke="#4F9AFF" stroke-width="4" stroke-linecap="round" stroke-linejoin="round"/>
<path d="M64.8337 60.8337C67.7755 60.8317 70.6835 60.2066 73.3664 58.9997C76.0493 57.7928 78.4461 56.0314 80.3992 53.8315C82.3522 51.6315 83.8172 49.0428 84.6978 46.2359C85.5783 43.4289 85.8543 40.4673 85.5077 37.5459C85.1611 34.6246 84.1998 31.8098 82.687 29.2867C81.1741 26.7637 79.1441 24.5897 76.7305 22.9078C74.3169 21.2258 71.5744 20.0741 68.6836 19.5285C65.7929 18.9828 62.8193 19.0556 59.9587 19.742L54.417 21.2503" stroke="#4F9AFF" stroke-width="4" stroke-linecap="round" stroke-linejoin="round"/>
</svg>
