<svg width="38" height="50" viewBox="0 0 38 50" fill="none" xmlns="http://www.w3.org/2000/svg">
<path d="M31.5 0H6.5C4.8424 0 3.25268 0.65848 2.08058 1.83058C0.90848 3.00269 0.25 4.5924 0.25 6.25V43.75C0.25 45.4076 0.90848 46.9973 2.08058 48.1694C3.25268 49.3415 4.8424 50 6.5 50H31.5C33.1576 50 34.7473 49.3415 35.9194 48.1694C37.0915 46.9973 37.75 45.4076 37.75 43.75V6.25C37.75 4.5924 37.0915 3.00269 35.9194 1.83058C34.7473 0.65848 33.1576 0 31.5 0V0ZM3.375 6.25C3.375 5.4212 3.70424 4.62634 4.29029 4.04029C4.87634 3.45424 5.6712 3.125 6.5 3.125H31.5C32.3288 3.125 33.1237 3.45424 33.7097 4.04029C34.2958 4.62634 34.625 5.4212 34.625 6.25V31.25L28.1156 24.7406C27.9552 24.5804 27.7617 24.457 27.5488 24.3791C27.3359 24.3011 27.1085 24.2704 26.8825 24.2892C26.6566 24.3079 26.4374 24.3756 26.2402 24.4876C26.043 24.5995 25.8725 24.753 25.7406 24.9375L19 34.375L12.2344 30.3125C11.9352 30.1334 11.5848 30.0595 11.2388 30.1025C10.8928 30.1455 10.5711 30.3031 10.325 30.55L3.375 37.5V6.25Z" fill="#B5B7C0"/>
</svg>
