<svg width="259" height="180" viewBox="0 0 259 180" fill="none" xmlns="http://www.w3.org/2000/svg">
<path d="M246 124C246 108.373 242.922 92.8984 236.942 78.4607C230.961 64.0229 222.196 50.9045 211.146 39.8543C200.096 28.8041 186.977 20.0386 172.539 14.0583C158.102 8.07802 142.627 5 127 5C111.373 5 95.8984 8.07803 81.4607 14.0583C67.0229 20.0386 53.9045 28.8041 42.8543 39.8543C31.8041 50.9045 23.0386 64.0229 17.0583 78.4607C11.078 92.8984 8 108.373 8 124" stroke="#CACACA" stroke-width="10"/>
<path d="M211 39.8543C199.958 28.8041 186.849 20.0386 172.421 14.0583C157.994 8.07802 142.531 5 126.915 5C111.299 5 95.8354 8.07803 81.408 14.0583C66.9806 20.0386 53.8715 28.8041 42.8293 39.8543C31.787 50.9045 23.0279 64.0229 17.0518 78.4607C11.0758 92.8984 8 108.373 8 124" stroke="#4F9AFF" stroke-width="10"/>
<path d="M106.293 81.3789L100.98 81.9648C100.85 80.8711 100.512 80.0638 99.9648 79.543C99.418 79.0221 98.7083 78.7617 97.8359 78.7617C96.6771 78.7617 95.694 79.2826 94.8867 80.3242C94.0924 81.3659 93.5911 83.5339 93.3828 86.8281C94.75 85.2135 96.4492 84.4062 98.4805 84.4062C100.772 84.4062 102.732 85.2786 104.359 87.0234C106 88.7682 106.82 91.0208 106.82 93.7812C106.82 96.7109 105.961 99.0612 104.242 100.832C102.523 102.603 100.316 103.488 97.6211 103.488C94.7305 103.488 92.3542 102.368 90.4922 100.129C88.6302 97.8763 87.6992 94.1914 87.6992 89.0742C87.6992 83.8268 88.6693 80.0443 90.6094 77.7266C92.5495 75.4089 95.069 74.25 98.168 74.25C100.342 74.25 102.139 74.862 103.559 76.0859C104.991 77.2969 105.902 79.0612 106.293 81.3789ZM93.8516 93.3516C93.8516 95.1354 94.2617 96.5156 95.082 97.4922C95.9023 98.4557 96.8398 98.9375 97.8945 98.9375C98.9102 98.9375 99.7565 98.5404 100.434 97.7461C101.111 96.9518 101.449 95.6497 101.449 93.8398C101.449 91.9779 101.085 90.6172 100.355 89.7578C99.6263 88.8854 98.7148 88.4492 97.6211 88.4492C96.5664 88.4492 95.6745 88.8659 94.9453 89.6992C94.2161 90.5195 93.8516 91.737 93.8516 93.3516ZM119.242 74.25C122.016 74.25 124.184 75.2396 125.746 77.2188C127.608 79.5625 128.539 83.4492 128.539 88.8789C128.539 94.2956 127.602 98.1888 125.727 100.559C124.177 102.512 122.016 103.488 119.242 103.488C116.456 103.488 114.21 102.421 112.504 100.285C110.798 98.1367 109.945 94.3151 109.945 88.8203C109.945 83.4297 110.883 79.5495 112.758 77.1797C114.307 75.2266 116.469 74.25 119.242 74.25ZM119.242 78.8008C118.578 78.8008 117.986 79.0156 117.465 79.4453C116.944 79.862 116.54 80.6172 116.254 81.7109C115.876 83.1302 115.688 85.5195 115.688 88.8789C115.688 92.2383 115.857 94.5495 116.195 95.8125C116.534 97.0625 116.957 97.8958 117.465 98.3125C117.986 98.7292 118.578 98.9375 119.242 98.9375C119.906 98.9375 120.499 98.7292 121.02 98.3125C121.54 97.8828 121.944 97.1211 122.23 96.0273C122.608 94.6211 122.797 92.2383 122.797 88.8789C122.797 85.5195 122.628 83.2148 122.289 81.9648C121.951 80.7018 121.521 79.862 121 79.4453C120.492 79.0156 119.906 78.8008 119.242 78.8008ZM132.27 81.4375C132.27 78.8724 132.829 76.9714 133.949 75.7344C135.082 74.4974 136.612 73.8789 138.539 73.8789C140.531 73.8789 142.087 74.4974 143.207 75.7344C144.34 76.9583 144.906 78.8594 144.906 81.4375C144.906 84.0026 144.34 85.9036 143.207 87.1406C142.087 88.3776 140.564 88.9961 138.637 88.9961C136.645 88.9961 135.082 88.3841 133.949 87.1602C132.829 85.9232 132.27 84.0156 132.27 81.4375ZM136.547 81.3984C136.547 83.2604 136.762 84.5104 137.191 85.1484C137.517 85.6172 137.966 85.8516 138.539 85.8516C139.125 85.8516 139.581 85.6172 139.906 85.1484C140.323 84.5104 140.531 83.2604 140.531 81.3984C140.531 79.5365 140.323 78.293 139.906 77.668C139.581 77.1862 139.125 76.9453 138.539 76.9453C137.966 76.9453 137.517 77.1797 137.191 77.6484C136.762 78.2865 136.547 79.5365 136.547 81.3984ZM142.719 104.094H138.656L153.91 73.8789H157.855L142.719 104.094ZM151.586 96.5742C151.586 94.0091 152.146 92.1081 153.266 90.8711C154.398 89.6341 155.941 89.0156 157.895 89.0156C159.861 89.0156 161.404 89.6341 162.523 90.8711C163.656 92.1081 164.223 94.0091 164.223 96.5742C164.223 99.1523 163.656 101.06 162.523 102.297C161.404 103.534 159.88 104.152 157.953 104.152C155.961 104.152 154.398 103.534 153.266 102.297C152.146 101.06 151.586 99.1523 151.586 96.5742ZM155.863 96.5547C155.863 98.4167 156.078 99.6602 156.508 100.285C156.833 100.767 157.283 101.008 157.855 101.008C158.441 101.008 158.891 100.773 159.203 100.305C159.633 99.6667 159.848 98.4167 159.848 96.5547C159.848 94.6927 159.639 93.4427 159.223 92.8047C158.897 92.3359 158.441 92.1016 157.855 92.1016C157.27 92.1016 156.82 92.3359 156.508 92.8047C156.078 93.4427 155.863 94.6927 155.863 96.5547Z" fill="#2A2A2A"/>
<line x1="74" y1="140" x2="180" y2="140" stroke="#4F9AFF" stroke-width="2"/>
<path d="M2.74414 136.812C3.4375 136.812 3.97949 137.06 4.37012 137.555C4.83561 138.141 5.06836 139.112 5.06836 140.47C5.06836 141.824 4.83398 142.797 4.36523 143.39C3.97786 143.878 3.4375 144.122 2.74414 144.122C2.04753 144.122 1.486 143.855 1.05957 143.321C0.633138 142.784 0.419922 141.829 0.419922 140.455C0.419922 139.107 0.654297 138.137 1.12305 137.545C1.51042 137.057 2.05078 136.812 2.74414 136.812ZM2.74414 137.95C2.57812 137.95 2.43001 138.004 2.2998 138.111C2.1696 138.215 2.06868 138.404 1.99707 138.678C1.90267 139.033 1.85547 139.63 1.85547 140.47C1.85547 141.31 1.89779 141.887 1.98242 142.203C2.06706 142.516 2.17285 142.724 2.2998 142.828C2.43001 142.932 2.57812 142.984 2.74414 142.984C2.91016 142.984 3.05827 142.932 3.18848 142.828C3.31868 142.721 3.4196 142.53 3.49121 142.257C3.58561 141.905 3.63281 141.31 3.63281 140.47C3.63281 139.63 3.59049 139.054 3.50586 138.741C3.42122 138.425 3.3138 138.215 3.18359 138.111C3.05664 138.004 2.91016 137.95 2.74414 137.95ZM6.00098 138.609C6.00098 137.968 6.14095 137.493 6.4209 137.184C6.7041 136.874 7.08659 136.72 7.56836 136.72C8.06641 136.72 8.4554 136.874 8.73535 137.184C9.01855 137.49 9.16016 137.965 9.16016 138.609C9.16016 139.251 9.01855 139.726 8.73535 140.035C8.4554 140.344 8.07454 140.499 7.59277 140.499C7.09473 140.499 6.7041 140.346 6.4209 140.04C6.14095 139.731 6.00098 139.254 6.00098 138.609ZM7.07031 138.6C7.07031 139.065 7.12402 139.378 7.23145 139.537C7.31283 139.654 7.42513 139.713 7.56836 139.713C7.71484 139.713 7.82878 139.654 7.91016 139.537C8.01432 139.378 8.06641 139.065 8.06641 138.6C8.06641 138.134 8.01432 137.823 7.91016 137.667C7.82878 137.547 7.71484 137.486 7.56836 137.486C7.42513 137.486 7.31283 137.545 7.23145 137.662C7.12402 137.822 7.07031 138.134 7.07031 138.6ZM8.61328 144.273H7.59766L11.4111 136.72H12.3975L8.61328 144.273ZM10.8301 142.394C10.8301 141.752 10.9701 141.277 11.25 140.968C11.5332 140.659 11.9189 140.504 12.4072 140.504C12.8988 140.504 13.2845 140.659 13.5645 140.968C13.8477 141.277 13.9893 141.752 13.9893 142.394C13.9893 143.038 13.8477 143.515 13.5645 143.824C13.2845 144.133 12.9036 144.288 12.4219 144.288C11.9238 144.288 11.5332 144.133 11.25 143.824C10.9701 143.515 10.8301 143.038 10.8301 142.394ZM11.8994 142.389C11.8994 142.854 11.9531 143.165 12.0605 143.321C12.1419 143.442 12.2542 143.502 12.3975 143.502C12.5439 143.502 12.6562 143.443 12.7344 143.326C12.8418 143.167 12.8955 142.854 12.8955 142.389C12.8955 141.923 12.8434 141.611 12.7393 141.451C12.6579 141.334 12.5439 141.275 12.3975 141.275C12.251 141.275 12.1387 141.334 12.0605 141.451C11.9531 141.611 11.8994 141.923 11.8994 142.389Z" fill="black"/>
<path d="M236.936 144H235.563V138.829C235.062 139.298 234.471 139.645 233.791 139.869V138.624C234.149 138.507 234.538 138.285 234.958 137.96C235.378 137.631 235.666 137.249 235.822 136.812H236.936V144ZM241.311 136.812C242.004 136.812 242.546 137.06 242.937 137.555C243.402 138.141 243.635 139.112 243.635 140.47C243.635 141.824 243.4 142.797 242.932 143.39C242.544 143.878 242.004 144.122 241.311 144.122C240.614 144.122 240.052 143.855 239.626 143.321C239.2 142.784 238.986 141.829 238.986 140.455C238.986 139.107 239.221 138.137 239.689 137.545C240.077 137.057 240.617 136.812 241.311 136.812ZM241.311 137.95C241.145 137.95 240.996 138.004 240.866 138.111C240.736 138.215 240.635 138.404 240.563 138.678C240.469 139.033 240.422 139.63 240.422 140.47C240.422 141.31 240.464 141.887 240.549 142.203C240.633 142.516 240.739 142.724 240.866 142.828C240.996 142.932 241.145 142.984 241.311 142.984C241.477 142.984 241.625 142.932 241.755 142.828C241.885 142.721 241.986 142.53 242.058 142.257C242.152 141.905 242.199 141.31 242.199 140.47C242.199 139.63 242.157 139.054 242.072 138.741C241.988 138.425 241.88 138.215 241.75 138.111C241.623 138.004 241.477 137.95 241.311 137.95ZM246.877 136.812C247.57 136.812 248.112 137.06 248.503 137.555C248.968 138.141 249.201 139.112 249.201 140.47C249.201 141.824 248.967 142.797 248.498 143.39C248.111 143.878 247.57 144.122 246.877 144.122C246.18 144.122 245.619 143.855 245.192 143.321C244.766 142.784 244.553 141.829 244.553 140.455C244.553 139.107 244.787 138.137 245.256 137.545C245.643 137.057 246.184 136.812 246.877 136.812ZM246.877 137.95C246.711 137.95 246.563 138.004 246.433 138.111C246.302 138.215 246.201 138.404 246.13 138.678C246.035 139.033 245.988 139.63 245.988 140.47C245.988 141.31 246.031 141.887 246.115 142.203C246.2 142.516 246.306 142.724 246.433 142.828C246.563 142.932 246.711 142.984 246.877 142.984C247.043 142.984 247.191 142.932 247.321 142.828C247.451 142.721 247.552 142.53 247.624 142.257C247.718 141.905 247.766 141.31 247.766 140.47C247.766 139.63 247.723 139.054 247.639 138.741C247.554 138.425 247.447 138.215 247.316 138.111C247.189 138.004 247.043 137.95 246.877 137.95ZM250.134 138.609C250.134 137.968 250.274 137.493 250.554 137.184C250.837 136.874 251.219 136.72 251.701 136.72C252.199 136.72 252.588 136.874 252.868 137.184C253.151 137.49 253.293 137.965 253.293 138.609C253.293 139.251 253.151 139.726 252.868 140.035C252.588 140.344 252.207 140.499 251.726 140.499C251.228 140.499 250.837 140.346 250.554 140.04C250.274 139.731 250.134 139.254 250.134 138.609ZM251.203 138.6C251.203 139.065 251.257 139.378 251.364 139.537C251.446 139.654 251.558 139.713 251.701 139.713C251.848 139.713 251.962 139.654 252.043 139.537C252.147 139.378 252.199 139.065 252.199 138.6C252.199 138.134 252.147 137.823 252.043 137.667C251.962 137.547 251.848 137.486 251.701 137.486C251.558 137.486 251.446 137.545 251.364 137.662C251.257 137.822 251.203 138.134 251.203 138.6ZM252.746 144.273H251.73L255.544 136.72H256.53L252.746 144.273ZM254.963 142.394C254.963 141.752 255.103 141.277 255.383 140.968C255.666 140.659 256.052 140.504 256.54 140.504C257.032 140.504 257.417 140.659 257.697 140.968C257.98 141.277 258.122 141.752 258.122 142.394C258.122 143.038 257.98 143.515 257.697 143.824C257.417 144.133 257.036 144.288 256.555 144.288C256.057 144.288 255.666 144.133 255.383 143.824C255.103 143.515 254.963 143.038 254.963 142.394ZM256.032 142.389C256.032 142.854 256.086 143.165 256.193 143.321C256.275 143.442 256.387 143.502 256.53 143.502C256.677 143.502 256.789 143.443 256.867 143.326C256.975 143.167 257.028 142.854 257.028 142.389C257.028 141.923 256.976 141.611 256.872 141.451C256.791 141.334 256.677 141.275 256.53 141.275C256.384 141.275 256.271 141.334 256.193 141.451C256.086 141.611 256.032 141.923 256.032 142.389Z" fill="black"/>
<path d="M86.4609 177V172.148L82.0469 165.547H83.8906L86.1484 169C86.5651 169.646 86.9531 170.292 87.3125 170.938C87.6562 170.339 88.0729 169.664 88.5625 168.914L90.7812 165.547H92.5469L87.9766 172.148V177H86.4609ZM91.7344 172.852C91.7344 171.315 92.1615 170.177 93.0156 169.438C93.7292 168.823 94.599 168.516 95.625 168.516C96.7656 168.516 97.6979 168.891 98.4219 169.641C99.1458 170.385 99.5078 171.417 99.5078 172.734C99.5078 173.802 99.3464 174.643 99.0234 175.258C98.7057 175.867 98.2396 176.341 97.625 176.68C97.0156 177.018 96.349 177.188 95.625 177.188C94.4635 177.188 93.5234 176.815 92.8047 176.07C92.0911 175.326 91.7344 174.253 91.7344 172.852ZM93.1797 172.852C93.1797 173.914 93.4115 174.711 93.875 175.242C94.3385 175.768 94.9219 176.031 95.625 176.031C96.3229 176.031 96.9036 175.766 97.3672 175.234C97.8307 174.703 98.0625 173.893 98.0625 172.805C98.0625 171.779 97.8281 171.003 97.3594 170.477C96.8958 169.945 96.3177 169.68 95.625 169.68C94.9219 169.68 94.3385 169.943 93.875 170.469C93.4115 170.995 93.1797 171.789 93.1797 172.852ZM106.602 177V175.781C105.956 176.719 105.078 177.188 103.969 177.188C103.479 177.188 103.021 177.094 102.594 176.906C102.172 176.719 101.857 176.484 101.648 176.203C101.445 175.917 101.302 175.568 101.219 175.156C101.161 174.88 101.133 174.443 101.133 173.844V168.703H102.539V173.305C102.539 174.039 102.568 174.534 102.625 174.789C102.714 175.159 102.901 175.451 103.188 175.664C103.474 175.872 103.828 175.977 104.25 175.977C104.672 175.977 105.068 175.87 105.438 175.656C105.807 175.438 106.068 175.143 106.219 174.773C106.375 174.398 106.453 173.857 106.453 173.148V168.703H107.859V177H106.602ZM110.055 177V168.703H111.32V169.961C111.643 169.372 111.94 168.984 112.211 168.797C112.487 168.609 112.789 168.516 113.117 168.516C113.591 168.516 114.073 168.667 114.562 168.969L114.078 170.273C113.734 170.07 113.391 169.969 113.047 169.969C112.74 169.969 112.464 170.062 112.219 170.25C111.974 170.432 111.799 170.688 111.695 171.016C111.539 171.516 111.461 172.062 111.461 172.656V177H110.055ZM120.031 177V165.547H124.352C125.112 165.547 125.693 165.583 126.094 165.656C126.656 165.75 127.128 165.93 127.508 166.195C127.888 166.456 128.193 166.823 128.422 167.297C128.656 167.771 128.773 168.292 128.773 168.859C128.773 169.833 128.464 170.659 127.844 171.336C127.224 172.008 126.104 172.344 124.484 172.344H121.547V177H120.031ZM121.547 170.992H124.508C125.487 170.992 126.182 170.81 126.594 170.445C127.005 170.081 127.211 169.568 127.211 168.906C127.211 168.427 127.089 168.018 126.844 167.68C126.604 167.336 126.286 167.109 125.891 167C125.635 166.932 125.164 166.898 124.477 166.898H121.547V170.992ZM130.508 177V168.703H131.773V169.961C132.096 169.372 132.393 168.984 132.664 168.797C132.94 168.609 133.242 168.516 133.57 168.516C134.044 168.516 134.526 168.667 135.016 168.969L134.531 170.273C134.188 170.07 133.844 169.969 133.5 169.969C133.193 169.969 132.917 170.062 132.672 170.25C132.427 170.432 132.253 170.688 132.148 171.016C131.992 171.516 131.914 172.062 131.914 172.656V177H130.508ZM135.328 172.852C135.328 171.315 135.755 170.177 136.609 169.438C137.323 168.823 138.193 168.516 139.219 168.516C140.359 168.516 141.292 168.891 142.016 169.641C142.74 170.385 143.102 171.417 143.102 172.734C143.102 173.802 142.94 174.643 142.617 175.258C142.299 175.867 141.833 176.341 141.219 176.68C140.609 177.018 139.943 177.188 139.219 177.188C138.057 177.188 137.117 176.815 136.398 176.07C135.685 175.326 135.328 174.253 135.328 172.852ZM136.773 172.852C136.773 173.914 137.005 174.711 137.469 175.242C137.932 175.768 138.516 176.031 139.219 176.031C139.917 176.031 140.497 175.766 140.961 175.234C141.424 174.703 141.656 173.893 141.656 172.805C141.656 171.779 141.422 171.003 140.953 170.477C140.49 169.945 139.911 169.68 139.219 169.68C138.516 169.68 137.932 169.943 137.469 170.469C137.005 170.995 136.773 171.789 136.773 172.852ZM145.094 177V169.797H143.852V168.703H145.094V167.82C145.094 167.263 145.143 166.849 145.242 166.578C145.378 166.214 145.615 165.919 145.953 165.695C146.297 165.466 146.776 165.352 147.391 165.352C147.786 165.352 148.224 165.398 148.703 165.492L148.492 166.719C148.201 166.667 147.924 166.641 147.664 166.641C147.237 166.641 146.935 166.732 146.758 166.914C146.581 167.096 146.492 167.438 146.492 167.938V168.703H148.109V169.797H146.492V177H145.094ZM149.219 167.164V165.547H150.625V167.164H149.219ZM149.219 177V168.703H150.625V177H149.219ZM152.742 177V165.547H154.148V177H152.742ZM162.016 174.328L163.469 174.508C163.24 175.357 162.815 176.016 162.195 176.484C161.576 176.953 160.784 177.188 159.82 177.188C158.607 177.188 157.643 176.815 156.93 176.07C156.221 175.32 155.867 174.271 155.867 172.922C155.867 171.526 156.227 170.443 156.945 169.672C157.664 168.901 158.596 168.516 159.742 168.516C160.852 168.516 161.758 168.893 162.461 169.648C163.164 170.404 163.516 171.466 163.516 172.836C163.516 172.919 163.513 173.044 163.508 173.211H157.32C157.372 174.122 157.63 174.82 158.094 175.305C158.557 175.789 159.135 176.031 159.828 176.031C160.344 176.031 160.784 175.896 161.148 175.625C161.513 175.354 161.802 174.922 162.016 174.328ZM157.398 172.055H162.031C161.969 171.357 161.792 170.833 161.5 170.484C161.052 169.943 160.471 169.672 159.758 169.672C159.112 169.672 158.568 169.888 158.125 170.32C157.688 170.753 157.445 171.331 157.398 172.055Z" fill="#6A6A6A"/>
</svg>
