<svg width="26" height="26" viewBox="0 0 26 26" fill="none" xmlns="http://www.w3.org/2000/svg">
<g clip-path="url(#clip0_939_184)">
<path d="M25.1743 13.2432C25.1743 12.178 25.0893 11.4007 24.9052 10.5946H12.9365V15.4024H19.9619C19.8203 16.5972 19.0554 18.3966 17.3557 19.6057L17.3319 19.7666L21.1161 22.746L21.3783 22.7726C23.7862 20.5126 25.1743 17.1874 25.1743 13.2432Z" fill="#4285F4"/>
<path d="M12.9363 25.9107C16.3782 25.9107 19.2676 24.7591 21.3781 22.7726L17.3555 19.6057C16.279 20.3686 14.8343 20.9012 12.9363 20.9012C9.56529 20.9012 6.70416 18.6413 5.68424 15.5176L5.53475 15.5305L1.5998 18.6254L1.54834 18.7708C3.64461 23.0029 7.95051 25.9107 12.9363 25.9107Z" fill="#34A853"/>
<path d="M5.68459 15.5177C5.41548 14.7116 5.25973 13.8478 5.25973 12.9554C5.25973 12.0628 5.41548 11.1992 5.67043 10.3931L5.6633 10.2214L1.67905 7.07678L1.54869 7.1398C0.684715 8.89599 0.188965 10.8681 0.188965 12.9554C0.188965 15.0426 0.684715 17.0146 1.54869 18.7708L5.68459 15.5177Z" fill="#FBBC05"/>
<path d="M12.9363 5.00937C15.33 5.00937 16.9447 6.06018 17.8654 6.93833L21.4631 3.36839C19.2535 1.28115 16.3782 0 12.9363 0C7.95051 0 3.64461 2.90773 1.54834 7.13978L5.67008 10.3931C6.70416 7.26938 9.56529 5.00937 12.9363 5.00937Z" fill="#EB4335"/>
</g>
<defs>
<clipPath id="clip0_939_184">
<rect width="25" height="26" fill="white" transform="translate(0.1875)"/>
</clipPath>
</defs>
</svg>
