<svg width="36" height="36" viewBox="0 0 36 36" fill="none" xmlns="http://www.w3.org/2000/svg">
<path d="M11.8217 5.62499V30.375M33.1251 1.04166H2.87508C2.38885 1.04166 1.92254 1.23481 1.57872 1.57863C1.2349 1.92244 1.04175 2.38876 1.04175 2.87499V33.125C1.04175 33.6112 1.2349 34.0775 1.57872 34.4214C1.92254 34.7652 2.38885 34.9583 2.87508 34.9583H33.1251C33.6113 34.9583 34.0776 34.7652 34.4214 34.4214C34.7653 34.0775 34.9584 33.6112 34.9584 33.125V2.87499C34.9584 2.38876 34.7653 1.92244 34.4214 1.57863C34.0776 1.23481 33.6113 1.04166 33.1251 1.04166V1.04166ZM11.8217 5.62499H24.1784H11.8217ZM11.8217 18H19.8792H11.8217Z" stroke="#00FF19" stroke-linecap="round" stroke-linejoin="round"/>
</svg>
