<svg width="38" height="38" viewBox="0 0 38 38" fill="none" xmlns="http://www.w3.org/2000/svg">
<path d="M19 36.0208C28.4003 36.0208 36.0208 28.4003 36.0208 19C36.0208 9.59964 28.4003 1.97916 19 1.97916C9.59961 1.97916 1.97913 9.59964 1.97913 19C1.97913 28.4003 9.59961 36.0208 19 36.0208Z" stroke="white" stroke-linecap="round" stroke-linejoin="round"/>
<path d="M27 14.3457C27.0018 13.2098 26.7813 12.0856 26.3521 11.042C25.923 9.99845 25.2941 9.0576 24.5042 8.27729C23.7143 7.49697 22.7801 6.89367 21.7589 6.50444C20.7377 6.11522 19.6511 5.94829 18.566 6.01392C14.2426 6.25462 11.0001 10.3187 11.0001 14.8549V22.6219C10.9943 23.72 11.1962 24.8084 11.5943 25.8246C11.9924 26.8408 12.5788 27.7647 13.3197 28.5433C14.0607 29.3219 14.9417 29.9398 15.9119 30.3614C16.8822 30.783 17.9227 31 18.9735 31V31C21.0881 31 23.1162 30.1222 24.6115 28.5597C26.1068 26.9972 26.9468 24.8779 26.9468 22.6682H19.0266" stroke="white" stroke-linecap="round" stroke-linejoin="round"/>
</svg>
