<svg width="38" height="38" viewBox="0 0 38 38" fill="none" xmlns="http://www.w3.org/2000/svg">
<path d="M33.9252 10.8118C35.867 14.3557 36.4831 18.4754 35.6632 22.4323C34.8433 26.3893 32.6411 29.9249 29.451 32.4056C26.261 34.8863 22.2919 36.1498 18.2549 35.9697C14.2179 35.7896 10.3769 34.1777 7.42049 31.4228C4.46405 28.668 2.58533 24.9503 2.12106 20.936C1.65678 16.9217 2.6373 12.8733 4.88687 9.51638C7.13644 6.15941 10.508 3.71332 14.3973 2.61649C18.2867 1.51967 22.4395 1.84382 26.1115 3.53084" stroke="#4F9AFF" stroke-linecap="round" stroke-linejoin="round"/>
<path d="M28.386 22.0289C28.386 22.0289 30.7926 15.4058 26.311 11.9431C24.0263 10.1777 23.4761 7.40919 24.6263 5.41657C25.3362 4.18703 26.5055 3.28986 27.8769 2.9224C29.2482 2.55495 30.7094 2.74732 31.939 3.45719C34.4992 4.93524 34.8198 8.16444 33.8983 10.7698C30.2226 18.5115 24.8425 31.2772 19.7259 30.4388C16.7255 29.9479 19.2565 19.2304 19.2565 19.2304C15.5372 30.2195 9.43822 33.0814 7.68785 31.7181C5.93747 30.3549 6.41722 26.1519 8.58956 22.0439C9.96157 19.2202 10.773 16.1572 10.9788 13.0245" stroke="#4F9AFF" stroke-linecap="round" stroke-linejoin="round"/>
</svg>
